# xmcd
#
# Track frame offsets: 
#        150
#        12606
#        30500
#        51513
#        65997
#        79260
#        97400
#        125417
#        142884
#        162190
#        183331
#        206158
#        237832
#
# Disc length: 3526 seconds
#
# Revision: 0
# Processed by: cddbd v1.5.2PL0 Copyright (c) Steve Scherf et al.
# Submitted via: ExactAudioCopy v0.95b4
#
DISCID=c00dc40d
DTITLE=The Time Jumpers - Jumpin Time CD 2
DYEAR=2006
DGENRE=Country
TTITLE0=Roly Poly
TTITLE1=South Of The Border
TTITLE2=Jumpin´ Time
TTITLE3=Bonaparte´s  Retreat
TTITLE4=My Confession
TTITLE5=Give Me A Pinto Pal
TTITLE6=Embracable You
TTITLE7=Cherokee Maiden
TTITLE8=My Weakness Is Too Strong
TTITLE9=All Of Me
TTITLE10=Caravan
TTITLE11=Sweet Memories
TTITLE12=My Window Faces The South
EXTD=
EXTT0=
EXTT1=
EXTT2=
EXTT3=
EXTT4=
EXTT5=
EXTT6=
EXTT7=
EXTT8=
EXTT9=
EXTT10=
EXTT11=
EXTT12=
PLAYORDER=
